<svg width="91" height="91" viewBox="0 0 91 91" fill="none" xmlns="http://www.w3.org/2000/svg">
<path d="M44.6037 17.2054C44.9031 16.2841 46.2065 16.2841 46.5059 17.2054L52.5812 35.9035C52.7151 36.3156 53.0991 36.5945 53.5323 36.5945L73.1927 36.5945C74.1614 36.5945 74.5642 37.8341 73.7805 38.4035L57.8749 49.9596C57.5244 50.2143 57.3777 50.6656 57.5116 51.0776L63.587 69.7758C63.8864 70.6971 62.8319 71.4632 62.0482 70.8938L46.1426 59.3377C45.7921 59.0831 45.3175 59.0831 44.967 59.3377L29.0614 70.8938C28.2777 71.4632 27.2232 70.6971 27.5226 69.7758L33.598 51.0776C33.7319 50.6656 33.5852 50.2143 33.2347 49.9596L17.3291 38.4035C16.5454 37.8341 16.9482 36.5945 17.9169 36.5945L37.5773 36.5945C38.0105 36.5945 38.3945 36.3156 38.5284 35.9035L44.6037 17.2054Z" fill="#FFCB44"/>
<path d="M25.8933 23.6132C25.5304 22.715 26.5289 21.8772 27.3504 22.3906L44.0233 32.809C44.3907 33.0386 44.8642 33.0054 45.196 32.727L60.2568 20.0895C60.9989 19.4668 62.1042 20.1575 61.8699 21.0975L57.1136 40.1739C57.0088 40.5942 57.1866 41.0343 57.554 41.2638L74.2269 51.6823C75.0484 52.1956 74.7331 53.4603 73.7667 53.5279L54.1542 54.8993C53.7221 54.9295 53.3585 55.2346 53.2537 55.655L48.4974 74.7313C48.2631 75.6713 46.9628 75.7622 46.6 74.864L39.235 56.6352C39.0728 56.2335 38.6703 55.9821 38.2381 56.0123L18.6256 57.3837C17.6593 57.4513 17.171 56.2428 17.9131 55.6201L32.9738 42.9827C33.3057 42.7042 33.4205 42.2437 33.2582 41.842L25.8933 23.6132Z" fill="#FFCB44"/>
<circle cx="45.5547" cy="45.5547" r="12.2485" fill="#FFCB44" stroke="#FFA800"/>
<circle cx="45.5548" cy="45.5547" r="10.5487" fill="#FFCB44" stroke="#FFA800"/>
<circle cx="45.5547" cy="45.5547" r="8.84892" fill="#FFCB44" stroke="#FFA800"/>
<circle cx="45.5546" cy="45.5547" r="7.14911" fill="#FFCB44" stroke="#FFA800"/>
<circle cx="45.5548" cy="45.5547" r="5.44931" fill="#FFCB44" stroke="#FFA800"/>
<circle cx="45.5547" cy="45.5547" r="3.74951" fill="#FFCB44" stroke="#FFA800"/>
<circle cx="45.5548" cy="45.5547" r="2.0497" fill="#FFCB44" stroke="#FFA800"/>
<circle cx="45.5547" cy="45.5547" r="0.5" fill="#FFCB44" stroke="#FFA800" stroke-width="0.699803"/>
</svg>
